NotoSerifTamil-ExtraCondensed.ufo
<glyph name="asterisk" format="2">
  <advance width="376"/>
  <unicode hex="002A"/>
  <outline>
    <contour>
      <point x="153" y="374" type="line"/>
      <point x="224" y="374" type="line"/>
      <point x="201" y="540" type="line"/>
      <point x="316" y="447" type="line"/>
      <point x="345" y="516" type="line"/>
      <point x="222" y="567" type="line"/>
      <point x="345" y="618" type="line"/>
      <point x="316" y="689" type="line"/>
      <point x="201" y="594" type="line"/>
      <point x="224" y="760" type="line"/>
      <point x="153" y="760" type="line"/>
      <point x="174" y="593" type="line"/>
      <point x="60" y="691" type="line"/>
      <point x="31" y="619" type="line"/>
      <point x="154" y="567" type="line"/>
      <point x="31" y="515" type="line"/>
      <point x="60" y="445" type="line"/>
      <point x="173" y="541" type="line"/>
    </contour>
  </outline>
</glyph>
<glyph name="plus" format="2">
  <advance width="425"/>
  <unicode hex="002B"/>
  <outline>
    <contour>
      <point x="182" y="143" type="line"/>
      <point x="241" y="143" type="line"/>
      <point x="241" y="329" type="line"/>
      <point x="382" y="329" type="line"/>
      <point x="382" y="386" type="line"/>
      <point x="241" y="386" type="line"/>
      <point x="241" y="572" type="line"/>
      <point x="182" y="572" type="line"/>
      <point x="182" y="386" type="line"/>
      <point x="43" y="386" type="line"/>
      <point x="43" y="329" type="line"/>
      <point x="182" y="329" type="line"/>
    </contour>
  </outline>
</glyph>
<glyph name="less" format="2">
  <advance width="425"/>
  <unicode hex="003C"/>
  <outline>
    <contour>
      <point x="382" y="111" type="line"/>
      <point x="382" y="177" type="line"/>
      <point x="119" y="357" type="line"/>
      <point x="382" y="540" type="line"/>
      <point x="382" y="605" type="line"/>
      <point x="43" y="375" type="line"/>
      <point x="43" y="340" type="line"/>
    </contour>
  </outline>
</glyph>
<glyph name="braceright" format="2">
  <advance width="341"/>
  <unicode hex="007D"/>
  <outline>
    <contour>
      <point x="35" y="-128" type="line"/>
      <point x="94" y="-128" type="line" smooth="yes"/>
      <point x="172" y="-128"/>
      <point x="213" y="-73"/>
      <point x="213" y="16" type="curve" smooth="yes"/>
      <point x="213" y="189" type="line" smooth="yes"/>
      <point x="213" y="272"/>
      <point x="255" y="294"/>
      <point x="306" y="297" type="curve"/>
      <point x="306" y="337" type="line"/>
      <point x="255" y="339"/>
      <point x="213" y="362"/>
      <point x="213" y="443" type="curve" smooth="yes"/>
      <point x="213" y="617" type="line" smooth="yes"/>
      <point x="213" y="708"/>
      <point x="172" y="760"/>
      <point x="94" y="760" type="curve" smooth="yes"/>
      <point x="35" y="760" type="line"/>
      <point x="35" y="718" type="line"/>
      <point x="61" y="718" type="line" smooth="yes"/>
      <point x="108" y="718"/>
      <point x="123" y="682"/>
      <point x="123" y="612" type="curve" smooth="yes"/>
      <point x="123" y="441" type="line" smooth="yes"/>
      <point x="123" y="375"/>
      <point x="152" y="329"/>
      <point x="212" y="318" type="curve"/>
      <point x="212" y="317" type="line"/>
      <point x="150" y="305"/>
      <point x="123" y="259"/>
      <point x="123" y="192" type="curve" smooth="yes"/>
      <point x="123" y="19" type="line" smooth="yes"/>
      <point x="123" y="-49"/>
      <point x="108" y="-86"/>
      <point x="61" y="-86" type="curve" smooth="yes"/>
      <point x="35" y="-86" type="line"/>
    </contour>
  </outline>
</glyph>
<glyph name="asciitilde" format="2">
  <advance width="425"/>
  <unicode hex="007E"/>
  <outline>
    <contour>
      <point x="30" y="270" type="curve"/>
      <point x="83" y="270" type="line"/>
      <point x="90" y="351"/>
      <point x="103" y="389"/>
      <point x="134" y="389" type="curve" smooth="yes"/>
      <point x="155" y="389"/>
      <point x="170" y="370"/>
      <point x="199" y="335" type="curve" smooth="yes"/>
      <point x="246" y="278"/>
      <point x="269" y="270"/>
      <point x="299" y="270" type="curve" smooth="yes"/>
      <point x="370" y="270"/>
      <point x="392" y="362"/>
      <point x="398" y="444" type="curve"/>
      <point x="344" y="444" type="line"/>
      <point x="338" y="363"/>
      <point x="326" y="325"/>
      <point x="296" y="325" type="curve" smooth="yes"/>
      <point x="274" y="325"/>
      <point x="260" y="345"/>
      <point x="231" y="378" type="curve" smooth="yes"/>
      <point x="195" y="419"/>
      <point x="169" y="444"/>
      <point x="131" y="444" type="curve" smooth="yes"/>
      <point x="56" y="444"/>
      <point x="36" y="354"/>
    </contour>
  </outline>
</glyph>
<glyph name="twosuperior" format="2">
  <advance width="316"/>
  <unicode hex="00B2"/>
  <outline>
    <contour>
      <point x="29" y="387" type="line"/>
      <point x="275" y="387" type="line"/>
      <point x="277" y="507" type="line"/>
      <point x="255" y="507" type="line"/>
      <point x="251" y="486" type="line" smooth="yes"/>
      <point x="247" y="463"/>
      <point x="241" y="445"/>
      <point x="217" y="445" type="curve"/>
      <point x="84" y="445" type="line"/>
      <point x="156" y="528" type="line"/>
      <point x="232" y="602"/>
      <point x="267" y="641"/>
      <point x="267" y="710" type="curve" smooth="yes"/>
      <point x="267" y="782"/>
      <point x="227" y="824"/>
      <point x="151" y="824" type="curve" smooth="yes"/>
      <point x="73" y="824"/>
      <point x="36" y="785"/>
      <point x="36" y="739" type="curve" smooth="yes"/>
      <point x="36" y="712"/>
      <point x="53" y="699"/>
      <point x="89" y="699" type="curve"/>
      <point x="89" y="759"/>
      <point x="106" y="790"/>
      <point x="145" y="790" type="curve" smooth="yes"/>
      <point x="181" y="790"/>
      <point x="199" y="759"/>
      <point x="199" y="710" type="curve" smooth="yes"/>
      <point x="199" y="644"/>
      <point x="171" y="603"/>
      <point x="126" y="548" type="curve" smooth="yes"/>
      <point x="29" y="431" type="line"/>
    </contour>
  </outline>
</glyph>
<glyph name="udatta-deva" format="2">
  <unicode hex="0951"/>
  <anchor x="0" y="554" name="_vedic"/>
  <outline>
    <contour>
      <point x="-25" y="917" type="line"/>
      <point x="25" y="917" type="line"/>
      <point x="25" y="1112" type="line"/>
      <point x="-25" y="1112" type="line"/>
    </contour>
  </outline>
</glyph>
<glyph name="a-tamil" format="2">
  <advance width="979"/>
  <unicode hex="0B85"/>
  <note>
uni0B85
</note>
  <anchor x="478" y="0" name="bottom"/>
  <anchor x="338" y="-122" name="nukta"/>
  <anchor x="488" y="554" name="top"/>
  <anchor x="490" y="554" name="vedic"/>
  <outline>
    <contour>
      <point x="813" y="-184" type="line"/>
      <point x="903" y="-184" type="line"/>
      <point x="903" y="554" type="line"/>
      <point x="813" y="554" type="line"/>
      <point x="813" y="171" type="line"/>
      <point x="100" y="171" type="line" smooth="yes"/>
      <point x="56" y="171"/>
      <point x="34" y="143"/>
      <point x="34" y="99" type="curve" smooth="yes"/>
      <point x="34" y="4"/>
      <point x="149" y="-122"/>
      <point x="338" y="-122" type="curve" smooth="yes"/>
      <point x="569" y="-122"/>
      <point x="712" y="17"/>
      <point x="712" y="250" type="curve" smooth="yes"/>
      <point x="712" y="442"/>
      <point x="610" y="559"/>
      <point x="470" y="559" type="curve" smooth="yes"/>
      <point x="368" y="559"/>
      <point x="299" y="496"/>
      <point x="299" y="385" type="curve" smooth="yes"/>
      <point x="299" y="307"/>
      <point x="347" y="247"/>
      <point x="417" y="247" type="curve" smooth="yes"/>
      <point x="488" y="247"/>
      <point x="532" y="296"/>
      <point x="532" y="377" type="curve" smooth="yes"/>
      <point x="532" y="452"/>
      <point x="483" y="513"/>
      <point x="424" y="519" type="curve"/>
      <point x="384" y="516" type="line"/>
      <point x="425" y="500"/>
      <point x="458" y="439"/>
      <point x="458" y="386" type="curve" smooth="yes"/>
      <point x="458" y="337"/>
      <point x="438" y="301"/>
      <point x="402" y="301" type="curve" smooth="yes"/>
      <point x="372" y="301"/>
      <point x="346" y="328"/>
      <point x="346" y="382" type="curve" smooth="yes"/>
      <point x="346" y="461"/>
      <point x="390" y="505"/>
      <point x="459" y="505" type="curve" smooth="yes"/>
      <point x="542" y="505"/>
      <point x="623" y="408"/>
      <point x="623" y="250" type="curve" smooth="yes"/>
      <point x="623" y="57"/>
      <point x="499" y="-68"/>
      <point x="332" y="-68" type="curve" smooth="yes"/>
      <point x="181" y="-68"/>
      <point x="89" y="29"/>
      <point x="89" y="91" type="curve" smooth="yes"/>
      <point x="89" y="107"/>
      <point x="95" y="117"/>
      <point x="114" y="117" type="curve" smooth="yes"/>
      <point x="813" y="117" type="line"/>
    </contour>
  </outline>
</glyph>
<glyph name="ii-tamil" format="2">
  <advance width="607"/>
  <unicode hex="0B88"/>
  <note>
uni0B88
</note>
  <anchor x="321" y="0" name="bottom"/>
  <anchor x="322" y="0" name="nukta"/>
  <anchor x="323" y="554" name="top"/>
  <anchor x="324" y="554" name="vedic"/>
  <outline>
    <contour>
      <point x="75" y="0" type="line"/>
      <point x="130" y="0" type="line"/>
      <point x="130" y="500" type="line"/>
      <point x="326" y="500" type="line"/>
      <point x="326" y="0" type="line"/>
      <point x="416" y="0" type="line"/>
      <point x="416" y="500" type="line"/>
      <point x="566" y="500" type="line"/>
      <point x="566" y="554" type="line"/>
      <point x="75" y="554" type="line"/>
    </contour>
    <contour>
      <point x="227" y="214" type="curve" smooth="yes"/>
      <point x="256" y="214"/>
      <point x="278" y="238"/>
      <point x="278" y="265" type="curve" smooth="yes"/>
      <point x="278" y="292"/>
      <point x="256" y="315"/>
      <point x="227" y="315" type="curve" smooth="yes"/>
      <point x="197" y="315"/>
      <point x="175" y="292"/>
      <point x="175" y="265" type="curve" smooth="yes"/>
      <point x="175" y="238"/>
      <point x="197" y="214"/>
    </contour>
    <contour>
      <point x="513" y="214" type="curve" smooth="yes"/>
      <point x="542" y="214"/>
      <point x="564" y="238"/>
      <point x="564" y="265" type="curve" smooth="yes"/>
      <point x="564" y="292"/>
      <point x="542" y="315"/>
      <point x="513" y="315" type="curve" smooth="yes"/>
      <point x="483" y="315"/>
      <point x="461" y="292"/>
      <point x="461" y="265" type="curve" smooth="yes"/>
      <point x="461" y="238"/>
      <point x="483" y="214"/>
    </contour>
  </outline>
</glyph>
<glyph name="u-tamil" format="2">
  <advance width="746"/>
  <unicode hex="0B89"/>
  <note>
uni0B89
</note>
  <anchor x="404" y="0" name="bottom"/>
  <anchor x="405" y="0" name="nukta"/>
  <anchor x="408" y="554" name="top"/>
  <anchor x="407" y="554" name="vedic"/>
  <outline>
    <contour>
      <point x="131" y="0" type="curve" smooth="yes"/>
      <point x="729" y="0" type="line"/>
      <point x="729" y="54" type="line"/>
      <point x="135" y="54" type="line" smooth="yes"/>
      <point x="118" y="54"/>
      <point x="96" y="69"/>
      <point x="96" y="94" type="curve" smooth="yes"/>
      <point x="96" y="120"/>
      <point x="118" y="135"/>
      <point x="135" y="135" type="curve" smooth="yes"/>
      <point x="296" y="135" type="line" smooth="yes"/>
      <point x="415" y="135"/>
      <point x="500" y="200"/>
      <point x="500" y="336" type="curve" smooth="yes"/>
      <point x="500" y="481"/>
      <point x="402" y="559"/>
      <point x="283" y="559" type="curve" smooth="yes"/>
      <point x="181" y="559"/>
      <point x="108" y="492"/>
      <point x="108" y="382" type="curve" smooth="yes"/>
      <point x="108" y="303"/>
      <point x="149" y="247"/>
      <point x="218" y="247" type="curve" smooth="yes"/>
      <point x="286" y="247"/>
      <point x="332" y="292"/>
      <point x="332" y="374" type="curve" smooth="yes"/>
      <point x="332" y="448"/>
      <point x="288" y="511"/>
      <point x="231" y="519" type="curve"/>
      <point x="190" y="516" type="line"/>
      <point x="229" y="500"/>
      <point x="258" y="436"/>
      <point x="258" y="383" type="curve" smooth="yes"/>
      <point x="258" y="333"/>
      <point x="241" y="301"/>
      <point x="207" y="301" type="curve" smooth="yes"/>
      <point x="179" y="301"/>
      <point x="155" y="325"/>
      <point x="155" y="379" type="curve" smooth="yes"/>
      <point x="155" y="458"/>
      <point x="200" y="505"/>
      <point x="269" y="505" type="curve" smooth="yes"/>
      <point x="346" y="505"/>
      <point x="410" y="447"/>
      <point x="410" y="349" type="curve" smooth="yes"/>
      <point x="410" y="244"/>
      <point x="363" y="188"/>
      <point x="283" y="188" type="curve" smooth="yes"/>
      <point x="131" y="188" type="line" smooth="yes"/>
      <point x="83" y="188"/>
      <point x="44" y="154"/>
      <point x="44" y="94" type="curve" smooth="yes"/>
      <point x="44" y="35"/>
      <point x="83" y="0"/>
    </contour>
  </outline>
</glyph>
<glyph name="au-tamil" format="2">
  <advance width="1687"/>
  <unicode hex="0B94"/>
  <note>
uni0B94
</note>
  <anchor x="871" y="0" name="bottom"/>
  <anchor x="934" y="0" name="nukta"/>
  <anchor x="864" y="554" name="top"/>
  <anchor x="864" y="554" name="vedic"/>
  <outline>
    <contour>
      <point x="958" y="-5" type="curve" smooth="yes"/>
      <point x="1046" y="-5"/>
      <point x="1099" y="57"/>
      <point x="1099" y="152" type="curve" smooth="yes"/>
      <point x="1099" y="245"/>
      <point x="1049" y="303"/>
      <point x="975" y="303" type="curve" smooth="yes"/>
      <point x="889" y="303"/>
      <point x="842" y="213"/>
      <point x="839" y="118" type="curve"/>
      <point x="867" y="92" type="line"/>
      <point x="867" y="170"/>
      <point x="901" y="236"/>
      <point x="949" y="236" type="curve" smooth="yes"/>
      <point x="995" y="236"/>
      <point x="1013" y="190"/>
      <point x="1013" y="146" type="curve" smooth="yes"/>
      <point x="1013" y="91"/>
      <point x="995" y="49"/>
      <point x="943" y="49" type="curve" smooth="yes"/>
      <point x="882" y="49"/>
      <point x="844" y="116"/>
      <point x="844" y="250" type="curve" smooth="yes"/>
      <point x="844" y="415"/>
      <point x="909" y="505"/>
      <point x="1034" y="505" type="curve" smooth="yes"/>
      <point x="1135" y="505"/>
      <point x="1216" y="435"/>
      <point x="1216" y="278" type="curve"/>
      <point x="1270" y="283" type="line"/>
      <point x="1258" y="480"/>
      <point x="1160" y="559"/>
      <point x="1029" y="559" type="curve" smooth="yes"/>
      <point x="884" y="559"/>
      <point x="791" y="454"/>
      <point x="791" y="251" type="curve" smooth="yes"/>
      <point x="791" y="83"/>
      <point x="860" y="-5"/>
    </contour>
    <contour>
      <point x="1217" y="0" type="line"/>
      <point x="1306" y="0" type="line"/>
      <point x="1306" y="500" type="line"/>
      <point x="1456" y="500" type="line"/>
      <point x="1456" y="0" type="line"/>
      <point x="1544" y="0" type="line"/>
      <point x="1544" y="500" type="line"/>
      <point x="1664" y="500" type="line"/>
      <point x="1664" y="554" type="line"/>
      <point x="1234" y="554" type="line"/>
      <point x="1234" y="387" type="line"/>
      <point x="1217" y="382" type="line"/>
    </contour>
    <component base="o-tamil"/>
  </outline>
</glyph>
<glyph name="nga-tamil" format="2">
  <advance width="772"/>
  <unicode hex="0B99"/>
  <note>
uni0B99
</note>
  <anchor x="385" y="0" name="bottom"/>
  <anchor x="424" y="554" name="imatra"/>
  <anchor x="385" y="0" name="nukta"/>
  <anchor x="384" y="554" name="top"/>
  <anchor x="385" y="554" name="vedic"/>
  <outline>
    <contour>
      <point x="75" y="0" type="line"/>
      <point x="134" y="0" type="line"/>
      <point x="134" y="500" type="line"/>
      <point x="236" y="500" type="line"/>
      <point x="236" y="196" type="line"/>
      <point x="322" y="196" type="line"/>
      <point x="322" y="240" type="line" smooth="yes"/>
      <point x="322" y="285"/>
      <point x="345" y="313"/>
      <point x="375" y="313" type="curve" smooth="yes"/>
      <point x="410" y="313"/>
      <point x="434" y="282"/>
      <point x="434" y="210" type="curve" smooth="yes"/>
      <point x="434" y="98"/>
      <point x="376" y="54"/>
      <point x="320" y="54" type="curve" smooth="yes"/>
      <point x="236" y="54" type="line"/>
      <point x="236" y="0" type="line"/>
      <point x="696" y="0" type="line"/>
      <point x="696" y="554" type="line"/>
      <point x="605" y="554" type="line"/>
      <point x="605" y="54" type="line"/>
      <point x="419" y="54" type="line"/>
      <point x="462" y="74"/>
      <point x="520" y="128"/>
      <point x="520" y="226" type="curve" smooth="yes"/>
      <point x="520" y="319"/>
      <point x="479" y="379"/>
      <point x="411" y="379" type="curve" smooth="yes"/>
      <point x="361" y="379"/>
      <point x="334" y="348"/>
      <point x="324" y="324" type="curve"/>
      <point x="324" y="500" type="line"/>
      <point x="443" y="500" type="line"/>
      <point x="443" y="554" type="line"/>
      <point x="75" y="554" type="line"/>
    </contour>
  </outline>
</glyph>
<glyph name="nya-tamil" format="2">
  <advance width="993"/>
  <unicode hex="0B9E"/>
  <note>
uni0B9E
</note>
  <anchor x="523" y="0" name="bottom"/>
  <anchor x="779" y="554" name="imatra"/>
  <anchor x="508" y="-304" name="nukta"/>
  <anchor x="540" y="554" name="top"/>
  <anchor x="520" y="554" name="vedic"/>
  <outline>
    <contour>
      <point x="508" y="-304" type="curve" smooth="yes"/>
      <point x="752" y="-304"/>
      <point x="945" y="-147"/>
      <point x="945" y="133" type="curve" smooth="yes"/>
      <point x="945" y="273"/>
      <point x="889" y="345"/>
      <point x="805" y="345" type="curve" smooth="yes"/>
      <point x="733" y="345"/>
      <point x="686" y="281"/>
      <point x="686" y="185" type="curve" smooth="yes"/>
      <point x="686" y="138" type="line"/>
      <point x="710" y="138" type="line"/>
      <point x="710" y="183" type="line" smooth="yes"/>
      <point x="710" y="236"/>
      <point x="738" y="282"/>
      <point x="775" y="282" type="curve" smooth="yes"/>
      <point x="828" y="282"/>
      <point x="854" y="237"/>
      <point x="854" y="126" type="curve" smooth="yes"/>
      <point x="854" y="-129"/>
      <point x="694" y="-250"/>
      <point x="502" y="-250" type="curve" smooth="yes"/>
      <point x="273" y="-250"/>
      <point x="101" y="-71"/>
      <point x="101" y="222" type="curve" smooth="yes"/>
      <point x="101" y="400"/>
      <point x="147" y="503"/>
      <point x="237" y="612" type="curve"/>
      <point x="199" y="646" type="line"/>
      <point x="102" y="535"/>
      <point x="49" y="400"/>
      <point x="49" y="222" type="curve" smooth="yes"/>
      <point x="49" y="-70"/>
      <point x="223" y="-304"/>
    </contour>
    <component base="e-tamil" xOffset="150"/>
  </outline>
</glyph>
<glyph name="nnna-tamil" format="2">
  <advance width="1007"/>
  <unicode hex="0BA9"/>
  <note>
uni0BA9
</note>
  <anchor x="498" y="0" name="bottom"/>
  <anchor x="880" y="554" name="imatra"/>
  <anchor x="498" y="0" name="nukta"/>
  <anchor x="521" y="554" name="top"/>
  <anchor x="519" y="554" name="vedic"/>
  <outline>
    <contour>
      <point x="209" y="-5" type="curve" smooth="yes"/>
      <point x="298" y="-5"/>
      <point x="351" y="57"/>
      <point x="351" y="152" type="curve" smooth="yes"/>
      <point x="351" y="245"/>
      <point x="301" y="303"/>
      <point x="227" y="303" type="curve" smooth="yes"/>
      <point x="141" y="303"/>
      <point x="95" y="213"/>
      <point x="93" y="118" type="curve"/>
      <point x="121" y="92" type="line"/>
      <point x="120" y="170"/>
      <point x="153" y="236"/>
      <point x="201" y="236" type="curve" smooth="yes"/>
      <point x="247" y="236"/>
      <point x="265" y="190"/>
      <point x="265" y="146" type="curve" smooth="yes"/>
      <point x="265" y="91"/>
      <point x="247" y="49"/>
      <point x="195" y="49" type="curve" smooth="yes"/>
      <point x="134" y="49"/>
      <point x="97" y="116"/>
      <point x="97" y="250" type="curve" smooth="yes"/>
      <point x="97" y="418"/>
      <point x="197" y="505"/>
      <point x="328" y="505" type="curve" smooth="yes"/>
      <point x="478" y="505"/>
      <point x="587" y="389"/>
      <point x="587" y="184" type="curve" smooth="yes"/>
      <point x="587" y="93"/>
      <point x="560" y="49"/>
      <point x="519" y="49" type="curve" smooth="yes"/>
      <point x="479" y="49"/>
      <point x="457" y="91"/>
      <point x="457" y="182" type="curve" smooth="yes"/>
      <point x="457" y="369"/>
      <point x="538" y="500"/>
      <point x="702" y="500" type="curve" smooth="yes"/>
      <point x="984" y="500" type="line"/>
      <point x="984" y="554" type="line"/>
      <point x="704" y="554" type="line" smooth="yes"/>
      <point x="510" y="554"/>
      <point x="403" y="405"/>
      <point x="403" y="186" type="curve" smooth="yes"/>
      <point x="403" y="60"/>
      <point x="445" y="-5"/>
      <point x="530" y="-5" type="curve" smooth="yes"/>
      <point x="614" y="-5"/>
      <point x="677" y="61"/>
      <point x="677" y="184" type="curve" smooth="yes"/>
      <point x="677" y="406"/>
      <point x="544" y="559"/>
      <point x="333" y="559" type="curve" smooth="yes"/>
      <point x="174" y="559"/>
      <point x="44" y="455"/>
      <point x="44" y="251" type="curve" smooth="yes"/>
      <point x="44" y="83"/>
      <point x="112" y="-5"/>
    </contour>
    <contour>
      <point x="775" y="0" type="line"/>
      <point x="864" y="0" type="line"/>
      <point x="864" y="529" type="line"/>
      <point x="775" y="529" type="line"/>
    </contour>
  </outline>
</glyph>
<glyph name="pa-tamil" format="2">
  <advance width="680"/>
  <unicode hex="0BAA"/>
  <note>
uni0BAA
</note>
  <anchor x="343" y="0" name="bottom"/>
  <anchor x="599" y="554" name="imatra"/>
  <anchor x="343" y="0" name="nukta"/>
  <anchor x="341" y="554" name="top"/>
  <anchor x="343" y="554" name="vedic"/>
  <outline>
    <contour>
      <point x="75" y="0" type="line"/>
      <point x="604" y="0" type="line"/>
      <point x="604" y="554" type="line"/>
      <point x="515" y="554" type="line"/>
      <point x="515" y="54" type="line"/>
      <point x="165" y="54" type="line"/>
      <point x="165" y="554" type="line"/>
      <point x="75" y="554" type="line"/>
    </contour>
  </outline>
</glyph>
<glyph name="aaMatra-tamil" format="2">
  <advance width="509"/>
  <unicode hex="0BBE"/>
  <note>
uni0BBE
</note>
  <anchor x="267" y="0" name="bottom"/>
  <anchor x="266" y="0" name="nukta"/>
  <anchor x="260" y="554" name="top"/>
  <anchor x="260" y="554" name="vedic"/>
  <outline>
    <contour>
      <point x="75" y="0" type="line"/>
      <point x="132" y="0" type="line"/>
      <point x="132" y="500" type="line"/>
      <point x="277" y="500" type="line"/>
      <point x="277" y="0" type="line"/>
      <point x="367" y="0" type="line"/>
      <point x="367" y="500" type="line"/>
      <point x="486" y="500" type="line"/>
      <point x="486" y="554" type="line"/>
      <point x="75" y="554" type="line"/>
    </contour>
  </outline>
</glyph>
<glyph name="iMatra-tamil" format="2">
  <advance width="170"/>
  <unicode hex="0BBF"/>
  <note>
uni0BBF
</note>
  <anchor x="-108" y="815" name="top"/>
  <outline>
    <contour>
      <point x="44" y="0" type="line"/>
      <point x="99" y="0" type="line"/>
      <point x="99" y="567" type="line" smooth="yes"/>
      <point x="99" y="733"/>
      <point x="15" y="815"/>
      <point x="-108" y="815" type="curve" smooth="yes"/>
      <point x="-214" y="815"/>
      <point x="-278" y="741"/>
      <point x="-278" y="643" type="curve" smooth="yes"/>
      <point x="-278" y="554"/>
      <point x="-232" y="500"/>
      <point x="-150" y="500" type="curve" smooth="yes"/>
      <point x="-145" y="500" type="line"/>
      <point x="-145" y="554" type="line"/>
      <point x="-150" y="554" type="line" smooth="yes"/>
      <point x="-190" y="554"/>
      <point x="-219" y="580"/>
      <point x="-219" y="629" type="curve" smooth="yes"/>
      <point x="-219" y="691"/>
      <point x="-173" y="728"/>
      <point x="-111" y="728" type="curve" smooth="yes"/>
      <point x="-18" y="728"/>
      <point x="44" y="675"/>
      <point x="44" y="537" type="curve" smooth="yes"/>
    </contour>
  </outline>
</glyph>
<glyph name="om-tamil" format="2">
  <advance width="759"/>
  <unicode hex="0BD0"/>
  <note>
uni0BD0
</note>
  <outline>
    <contour>
      <point x="265" y="-345" type="curve" smooth="yes"/>
      <point x="465" y="-345"/>
      <point x="465" y="-135"/>
      <point x="608" y="-135" type="curve" smooth="yes"/>
      <point x="640" y="-135" type="line"/>
      <point x="640" y="-81" type="line"/>
      <point x="598" y="-81" type="line" smooth="yes"/>
      <point x="476" y="-81"/>
      <point x="385" y="25"/>
      <point x="461" y="187" type="curve"/>
      <point x="467" y="184" type="line"/>
      <point x="446" y="75"/>
      <point x="467" y="-5"/>
      <point x="570" y="-5" type="curve" smooth="yes"/>
      <point x="652" y="-5"/>
      <point x="715" y="69"/>
      <point x="715" y="193" type="curve" smooth="yes"/>
      <point x="715" y="422"/>
      <point x="566" y="559"/>
      <point x="362" y="559" type="curve" smooth="yes"/>
      <point x="186" y="559"/>
      <point x="44" y="422"/>
      <point x="44" y="246" type="curve" smooth="yes"/>
      <point x="44" y="79"/>
      <point x="113" y="5"/>
      <point x="211" y="5" type="curve" smooth="yes"/>
      <point x="300" y="5"/>
      <point x="352" y="67"/>
      <point x="352" y="162" type="curve" smooth="yes"/>
      <point x="352" y="255"/>
      <point x="302" y="313"/>
      <point x="229" y="313" type="curve" smooth="yes"/>
      <point x="142" y="313"/>
      <point x="95" y="213"/>
      <point x="93" y="118" type="curve"/>
      <point x="121" y="92" type="line"/>
      <point x="120" y="170"/>
      <point x="154" y="246"/>
      <point x="203" y="246" type="curve" smooth="yes"/>
      <point x="249" y="246"/>
      <point x="267" y="200"/>
      <point x="267" y="156" type="curve" smooth="yes"/>
      <point x="267" y="101"/>
      <point x="248" y="59"/>
      <point x="196" y="59" type="curve" smooth="yes"/>
      <point x="136" y="59"/>
      <point x="97" y="111"/>
      <point x="97" y="245" type="curve" smooth="yes"/>
      <point x="97" y="401"/>
      <point x="222" y="505"/>
      <point x="361" y="505" type="curve" smooth="yes"/>
      <point x="520" y="505"/>
      <point x="627" y="394"/>
      <point x="627" y="203" type="curve" smooth="yes"/>
      <point x="627" y="110"/>
      <point x="598" y="49"/>
      <point x="551" y="49" type="curve" smooth="yes"/>
      <point x="487" y="49"/>
      <point x="492" y="146"/>
      <point x="525" y="251" type="curve"/>
      <point x="461" y="278" type="line"/>
      <point x="323" y="50"/>
      <point x="413" y="-65"/>
      <point x="506" y="-104" type="curve"/>
      <point x="506" y="-109" type="line"/>
      <point x="405" y="-130"/>
      <point x="411" y="-285"/>
      <point x="248" y="-285" type="curve" smooth="yes"/>
      <point x="175" y="-285"/>
      <point x="122" y="-246"/>
      <point x="135" y="-164" type="curve"/>
      <point x="85" y="-155" type="line"/>
      <point x="64" y="-270"/>
      <point x="144" y="-345"/>
    </contour>
    <contour>
      <point x="173" y="-222" type="line"/>
      <point x="212" y="-222" type="line"/>
      <point x="212" y="-70" type="line"/>
      <point x="173" y="-70" type="line"/>
    </contour>
    <contour>
      <point x="186" y="-222" type="line"/>
      <point x="336" y="-222" type="line"/>
      <point x="336" y="-184" type="line"/>
      <point x="186" y="-184" type="line"/>
    </contour>
    <contour>
      <point x="243" y="-222" type="line"/>
      <point x="280" y="-222" type="line"/>
      <point x="280" y="-128" type="line" smooth="yes"/>
      <point x="280" y="-115"/>
      <point x="285" y="-106"/>
      <point x="297" y="-106" type="curve" smooth="yes"/>
      <point x="308" y="-106"/>
      <point x="313" y="-115"/>
      <point x="313" y="-128" type="curve" smooth="yes"/>
      <point x="313" y="-222" type="line"/>
      <point x="354" y="-222" type="line"/>
      <point x="354" y="-131" type="line" smooth="yes"/>
      <point x="354" y="-85"/>
      <point x="328" y="-67"/>
      <point x="297" y="-67" type="curve" smooth="yes"/>
      <point x="267" y="-67"/>
      <point x="243" y="-85"/>
      <point x="243" y="-131" type="curve" smooth="yes"/>
    </contour>
    <contour>
      <point x="259" y="-61" type="curve" smooth="yes"/>
      <point x="275" y="-61"/>
      <point x="288" y="-48"/>
      <point x="288" y="-33" type="curve" smooth="yes"/>
      <point x="288" y="-18"/>
      <point x="275" y="-5"/>
      <point x="259" y="-5" type="curve" smooth="yes"/>
      <point x="243" y="-5"/>
      <point x="230" y="-18"/>
      <point x="230" y="-33" type="curve" smooth="yes"/>
      <point x="230" y="-48"/>
      <point x="243" y="-61"/>
    </contour>
  </outline>
</glyph>
<glyph name="zero-tamil" format="2">
  <advance width="475"/>
  <unicode hex="0BE6"/>
  <note>
uni0BE6
</note>
  <outline>
    <contour>
      <point x="235" y="-5" type="curve" smooth="yes"/>
      <point x="355" y="-5"/>
      <point x="429" y="97"/>
      <point x="429" y="277" type="curve" smooth="yes"/>
      <point x="429" y="452"/>
      <point x="359" y="559"/>
      <point x="237" y="559" type="curve" smooth="yes"/>
      <point x="112" y="559"/>
      <point x="46" y="449"/>
      <point x="46" y="277" type="curve" smooth="yes"/>
      <point x="46" y="105"/>
      <point x="110" y="-5"/>
    </contour>
    <contour>
      <point x="220" y="63" type="curve" smooth="yes"/>
      <point x="135" y="63"/>
      <point x="104" y="158"/>
      <point x="104" y="277" type="curve" smooth="yes"/>
      <point x="104" y="391"/>
      <point x="135" y="491"/>
      <point x="220" y="491" type="curve" smooth="yes"/>
      <point x="299" y="491"/>
      <point x="340" y="411"/>
      <point x="340" y="277" type="curve" smooth="yes"/>
      <point x="340" y="138"/>
      <point x="295" y="63"/>
    </contour>
  </outline>
</glyph>
<glyph name="month-tamil" format="2">
  <advance width="852"/>
  <unicode hex="0BF4"/>
  <note>
uni0BF4
</note>
  <anchor x="345" y="0" name="bottom"/>
  <anchor x="610" y="554" name="imatra"/>
  <anchor x="346" y="0" name="nukta"/>
  <anchor x="378" y="554" name="top"/>
  <anchor x="357" y="554" name="vedic"/>
  <outline>
    <contour>
      <point x="553" y="468" type="curve"/>
      <point x="572" y="493" type="line"/>
      <point x="538" y="539"/>
      <point x="520" y="576"/>
      <point x="520" y="647" type="curve" smooth="yes"/>
      <point x="520" y="735"/>
      <point x="552" y="786"/>
      <point x="621" y="786" type="curve" smooth="yes"/>
      <point x="667" y="786"/>
      <point x="700" y="748"/>
      <point x="700" y="686" type="curve" smooth="yes"/>
      <point x="700" y="645"/>
      <point x="683" y="620"/>
      <point x="656" y="620" type="curve" smooth="yes"/>
      <point x="618" y="620"/>
      <point x="606" y="667"/>
      <point x="606" y="730" type="curve" smooth="yes"/>
      <point x="606" y="828"/>
      <point x="649" y="887"/>
      <point x="718" y="887" type="curve" smooth="yes"/>
      <point x="773" y="887"/>
      <point x="815" y="856"/>
      <point x="815" y="776" type="curve" smooth="yes"/>
      <point x="815" y="571" type="line"/>
      <point x="889" y="571" type="line"/>
      <point x="889" y="801" type="line" smooth="yes"/>
      <point x="889" y="860"/>
      <point x="906" y="900"/>
      <point x="952" y="892" type="curve"/>
      <point x="959" y="936" type="line"/>
      <point x="887" y="941"/>
      <point x="858" y="899"/>
      <point x="852" y="846" type="curve"/>
      <point x="849" y="846" type="line"/>
      <point x="832" y="900"/>
      <point x="778" y="936"/>
      <point x="719" y="936" type="curve" smooth="yes"/>
      <point x="618" y="936"/>
      <point x="560" y="849"/>
      <point x="560" y="727" type="curve" smooth="yes"/>
      <point x="560" y="636"/>
      <point x="591" y="566"/>
      <point x="667" y="566" type="curve" smooth="yes"/>
      <point x="723" y="566"/>
      <point x="767" y="610"/>
      <point x="767" y="682" type="curve" smooth="yes"/>
      <point x="767" y="782"/>
      <point x="707" y="837"/>
      <point x="619" y="837" type="curve" smooth="yes"/>
      <point x="525" y="837"/>
      <point x="471" y="754"/>
      <point x="471" y="659" type="curve" smooth="yes"/>
      <point x="471" y="584"/>
      <point x="494" y="534"/>
    </contour>
    <component base="ma-tamil"/>
  </outline>
</glyph>
<glyph name="year-tamil" format="2">
  <advance width="1644"/>
  <unicode hex="0BF5"/>
  <note>
uni0BF5
</note>
  <anchor x="639" y="0" name="bottom"/>
  <anchor x="1011" y="554" name="imatra"/>
  <anchor x="644" y="0" name="nukta"/>
  <anchor x="688" y="554" name="top"/>
  <anchor x="654" y="554" name="vedic"/>
  <outline>
    <contour>
      <point x="625" y="-254" type="curve" smooth="yes"/>
      <point x="919" y="-254"/>
      <point x="1185" y="-147"/>
      <point x="1185" y="142" type="curve" smooth="yes"/>
      <point x="1185" y="264"/>
      <point x="1138" y="345"/>
      <point x="1054" y="345" type="curve" smooth="yes"/>
      <point x="981" y="345"/>
      <point x="940" y="281"/>
      <point x="940" y="185" type="curve" smooth="yes"/>
      <point x="940" y="138" type="line"/>
      <point x="964" y="138" type="line"/>
      <point x="964" y="183" type="line" smooth="yes"/>
      <point x="964" y="231"/>
      <point x="984" y="282"/>
      <point x="1023" y="282" type="curve" smooth="yes"/>
      <point x="1073" y="282"/>
      <point x="1091" y="224"/>
      <point x="1091" y="136" type="curve" smooth="yes"/>
      <point x="1091" y="-111"/>
      <point x="874" y="-200"/>
      <point x="625" y="-200" type="curve" smooth="yes"/>
      <point x="330" y="-200"/>
      <point x="101" y="-55"/>
      <point x="101" y="272" type="curve" smooth="yes"/>
      <point x="101" y="591"/>
      <point x="330" y="775"/>
      <point x="681" y="775" type="curve" smooth="yes"/>
      <point x="1031" y="775"/>
      <point x="1270" y="609"/>
      <point x="1270" y="320" type="curve" smooth="yes"/>
      <point x="1270" y="163" type="line" smooth="yes"/>
      <point x="1270" y="50"/>
      <point x="1324" y="0"/>
      <point x="1405" y="0" type="curve" smooth="yes"/>
      <point x="1520" y="0"/>
      <point x="1595" y="110"/>
      <point x="1595" y="279" type="curve" smooth="yes"/>
      <point x="1595" y="389"/>
      <point x="1573" y="462"/>
      <point x="1517" y="559" type="curve"/>
      <point x="1470" y="532" type="line"/>
      <point x="1517" y="451"/>
      <point x="1542" y="374"/>
      <point x="1542" y="289" type="curve" smooth="yes"/>
      <point x="1542" y="147"/>
      <point x="1493" y="59"/>
      <point x="1423" y="59" type="curve" smooth="yes"/>
      <point x="1380" y="59"/>
      <point x="1360" y="89"/>
      <point x="1360" y="162" type="curve" smooth="yes"/>
      <point x="1360" y="321" type="line" smooth="yes"/>
      <point x="1360" y="650"/>
      <point x="1074" y="829"/>
      <point x="682" y="829" type="curve" smooth="yes"/>
      <point x="276" y="829"/>
      <point x="49" y="611"/>
      <point x="49" y="272" type="curve" smooth="yes"/>
      <point x="49" y="-84"/>
      <point x="299" y="-254"/>
    </contour>
    <component base="lla-tamil" xOffset="169"/>
  </outline>
</glyph>
<glyph name="number-tamil" format="2">
  <advance width="708"/>
  <unicode hex="0BFA"/>
  <note>
uni0BFA
</note>
  <anchor x="291" y="0" name="bottom"/>
  <anchor x="419" y="554" name="imatra"/>
  <anchor x="329" y="-181" name="nukta"/>
  <anchor x="295" y="554" name="top"/>
  <anchor x="305" y="554" name="vedic"/>
  <outline>
    <contour>
      <point x="565" y="500" type="line"/>
      <point x="700" y="500" type="line"/>
      <point x="700" y="554" type="line"/>
      <point x="590" y="554" type="line"/>
      <point x="597" y="528" type="line"/>
      <point x="645" y="583"/>
      <point x="684" y="647"/>
      <point x="684" y="732" type="curve" smooth="yes"/>
      <point x="684" y="858"/>
      <point x="613" y="933"/>
      <point x="519" y="933" type="curve" smooth="yes"/>
      <point x="418" y="933"/>
      <point x="361" y="841"/>
      <point x="361" y="738" type="curve" smooth="yes"/>
      <point x="361" y="653"/>
      <point x="393" y="598"/>
      <point x="465" y="598" type="curve" smooth="yes"/>
      <point x="521" y="598"/>
      <point x="560" y="646"/>
      <point x="560" y="707" type="curve" smooth="yes"/>
      <point x="560" y="805"/>
      <point x="494" y="854"/>
      <point x="415" y="854" type="curve" smooth="yes"/>
      <point x="325" y="854"/>
      <point x="262" y="790"/>
      <point x="262" y="682" type="curve" smooth="yes"/>
      <point x="262" y="589"/>
      <point x="323" y="517"/>
      <point x="401" y="512" type="curve"/>
      <point x="414" y="554" type="line"/>
      <point x="354" y="554"/>
      <point x="314" y="608"/>
      <point x="314" y="678" type="curve" smooth="yes"/>
      <point x="314" y="761"/>
      <point x="347" y="800"/>
      <point x="411" y="800" type="curve" smooth="yes"/>
      <point x="459" y="800"/>
      <point x="492" y="770"/>
      <point x="492" y="711" type="curve" smooth="yes"/>
      <point x="492" y="674"/>
      <point x="479" y="652"/>
      <point x="454" y="652" type="curve" smooth="yes"/>
      <point x="426" y="652"/>
      <point x="411" y="686"/>
      <point x="411" y="730" type="curve" smooth="yes"/>
      <point x="411" y="801"/>
      <point x="438" y="879"/>
      <point x="510" y="879" type="curve" smooth="yes"/>
      <point x="578" y="879"/>
      <point x="617" y="819"/>
      <point x="617" y="723" type="curve" smooth="yes"/>
      <point x="617" y="645"/>
      <point x="591" y="599"/>
      <point x="550" y="541" type="curve"/>
    </contour>
    <component base="na-tamil"/>
  </outline>
</glyph>
<glyph name="rupeeIndian" format="2">
  <advance width="417"/>
  <unicode hex="20B9"/>
  <outline>
    <contour>
      <point x="291" y="0" type="curve" smooth="yes"/>
      <point x="318" y="0" type="line"/>
      <point x="318" y="42" type="line"/>
      <point x="312" y="42" type="line" smooth="yes"/>
      <point x="283" y="42"/>
      <point x="259" y="68"/>
      <point x="236" y="122" type="curve" smooth="yes"/>
      <point x="152" y="318" type="line"/>
      <point x="251" y="324"/>
      <point x="294" y="400"/>
      <point x="302" y="497" type="curve"/>
      <point x="382" y="497" type="line"/>
      <point x="382" y="544" type="line"/>
      <point x="303" y="544" type="line"/>
      <point x="300" y="597"/>
      <point x="287" y="638"/>
      <point x="262" y="667" type="curve"/>
      <point x="382" y="667" type="line"/>
      <point x="382" y="714" type="line"/>
      <point x="46" y="714" type="line"/>
      <point x="46" y="667" type="line"/>
      <point x="110" y="667" type="line" smooth="yes"/>
      <point x="174" y="667"/>
      <point x="201" y="632"/>
      <point x="205" y="544" type="curve"/>
      <point x="46" y="544" type="line"/>
      <point x="46" y="497" type="line"/>
      <point x="205" y="497" type="line"/>
      <point x="199" y="397"/>
      <point x="155" y="365"/>
      <point x="84" y="365" type="curve" smooth="yes"/>
      <point x="46" y="365" type="line"/>
      <point x="46" y="337" type="line"/>
      <point x="145" y="90" type="line" smooth="yes"/>
      <point x="176" y="13"/>
      <point x="204" y="0"/>
    </contour>
  </outline>
</glyph>
<glyph name="iiMatra-tamil.alt02" format="2">
  <note>
uni0BC0
</note>
  <anchor x="-247" y="882" name="top"/>
  <outline>
    <contour>
      <point x="-299" y="505" type="curve"/>
      <point x="-282" y="542" type="line"/>
      <point x="-335" y="571"/>
      <point x="-363" y="622"/>
      <point x="-363" y="689" type="curve" smooth="yes"/>
      <point x="-363" y="768"/>
      <point x="-333" y="828"/>
      <point x="-252" y="828" type="curve" smooth="yes"/>
      <point x="-197" y="828"/>
      <point x="-164" y="792"/>
      <point x="-164" y="730" type="curve" smooth="yes"/>
      <point x="-164" y="683"/>
      <point x="-186" y="656"/>
      <point x="-218" y="656" type="curve" smooth="yes"/>
      <point x="-279" y="656"/>
      <point x="-289" y="756"/>
      <point x="-253" y="851" type="curve"/>
      <point x="-295" y="855" type="line"/>
      <point x="-350" y="729"/>
      <point x="-315" y="602"/>
      <point x="-208" y="602" type="curve" smooth="yes"/>
      <point x="-134" y="602"/>
      <point x="-89" y="661"/>
      <point x="-89" y="728" type="curve" smooth="yes"/>
      <point x="-89" y="824"/>
      <point x="-149" y="882"/>
      <point x="-247" y="882" type="curve" smooth="yes"/>
      <point x="-354" y="882"/>
      <point x="-417" y="801"/>
      <point x="-417" y="690" type="curve" smooth="yes"/>
      <point x="-417" y="601"/>
      <point x="-376" y="543"/>
    </contour>
  </outline>
</glyph>
<glyph name="ruu-tamil" format="2">
  <advance width="974"/>
  <note>
g131
</note>
  <anchor x="514" y="0" name="bottom"/>
  <anchor x="512" y="-254" name="nukta"/>
  <anchor x="541" y="554" name="top"/>
  <anchor x="509" y="554" name="vedic"/>
  <outline>
    <contour>
      <point x="512" y="-254" type="curve" smooth="yes"/>
      <point x="726" y="-254"/>
      <point x="926" y="-116"/>
      <point x="926" y="143" type="curve" smooth="yes"/>
      <point x="926" y="273"/>
      <point x="875" y="345"/>
      <point x="794" y="345" type="curve" smooth="yes"/>
      <point x="725" y="345"/>
      <point x="681" y="281"/>
      <point x="681" y="185" type="curve" smooth="yes"/>
      <point x="681" y="138" type="line"/>
      <point x="705" y="138" type="line"/>
      <point x="705" y="183" type="line" smooth="yes"/>
      <point x="705" y="236"/>
      <point x="729" y="282"/>
      <point x="764" y="282" type="curve" smooth="yes"/>
      <point x="813" y="282"/>
      <point x="834" y="237"/>
      <point x="834" y="136" type="curve" smooth="yes"/>
      <point x="834" y="-98"/>
      <point x="673" y="-200"/>
      <point x="506" y="-200" type="curve" smooth="yes"/>
      <point x="244" y="-200"/>
      <point x="101" y="-15"/>
      <point x="101" y="301" type="curve" smooth="yes"/>
      <point x="101" y="408"/>
      <point x="122" y="496"/>
      <point x="182" y="496" type="curve" smooth="yes"/>
      <point x="214" y="496"/>
      <point x="234" y="470"/>
      <point x="234" y="426" type="curve" smooth="yes"/>
      <point x="234" y="343"/>
      <point x="162" y="301"/>
      <point x="79" y="349" type="curve"/>
      <point x="68" y="314" type="line"/>
      <point x="179" y="239"/>
      <point x="303" y="299"/>
      <point x="303" y="429" type="curve" smooth="yes"/>
      <point x="303" y="511"/>
      <point x="258" y="559"/>
      <point x="191" y="559" type="curve" smooth="yes"/>
      <point x="106" y="559"/>
      <point x="49" y="485"/>
      <point x="49" y="288" type="curve" smooth="yes"/>
      <point x="49" y="-48"/>
      <point x="228" y="-254"/>
    </contour>
    <contour>
      <point x="376" y="0" type="line"/>
      <point x="466" y="0" type="line"/>
      <point x="466" y="500" type="line"/>
      <point x="614" y="500" type="line"/>
      <point x="614" y="0" type="line"/>
      <point x="705" y="0" type="line"/>
      <point x="705" y="500" type="line"/>
      <point x="824" y="500" type="line"/>
      <point x="824" y="554" type="line"/>
      <point x="376" y="554" type="line"/>
    </contour>
  </outline>
</glyph>
<glyph name="vuu-tamil" format="2">
  <advance width="992"/>
  <note>
g144
</note>
  <anchor x="453" y="0" name="bottom"/>
  <anchor x="452" y="-341" name="nukta"/>
  <anchor x="494" y="554" name="top"/>
  <anchor x="512" y="554" name="vedic"/>
  <anchor x="710" y="554" name="imatra"/>
  <outline>
    <contour>
      <point x="452" y="-341" type="curve" smooth="yes"/>
      <point x="687" y="-341"/>
      <point x="975" y="-255"/>
      <point x="975" y="-25" type="curve" smooth="yes"/>
      <point x="975" y="63"/>
      <point x="935" y="116"/>
      <point x="869" y="116" type="curve" smooth="yes"/>
      <point x="807" y="116"/>
      <point x="771" y="56"/>
      <point x="768" y="-21" type="curve"/>
      <point x="787" y="-23" type="line"/>
      <point x="787" y="19"/>
      <point x="813" y="40"/>
      <point x="838" y="40" type="curve" smooth="yes"/>
      <point x="874" y="40"/>
      <point x="891" y="11"/>
      <point x="891" y="-32" type="curve" smooth="yes"/>
      <point x="891" y="-217"/>
      <point x="644" y="-288"/>
      <point x="438" y="-288" type="curve" smooth="yes"/>
      <point x="293" y="-288"/>
      <point x="137" y="-257"/>
      <point x="137" y="-179" type="curve" smooth="yes"/>
      <point x="137" y="-82"/>
      <point x="349" y="-107"/>
      <point x="477" y="-156" type="curve"/>
      <point x="493" y="-107" type="line"/>
      <point x="337" y="-48"/>
      <point x="82" y="-25"/>
      <point x="82" y="-174" type="curve" smooth="yes"/>
      <point x="82" y="-298"/>
      <point x="271" y="-341"/>
    </contour>
    <contour>
      <point x="697" y="-137" type="line"/>
      <point x="787" y="-137" type="line"/>
      <point x="787" y="190" type="line"/>
      <point x="697" y="190" type="line"/>
    </contour>
    <component base="va-tamil"/>
  </outline>
</glyph>
